<mxfile host="drawio-plugin" modified="2021-03-07T15:11:52.417Z" agent="5.0 (Macintosh; Intel Mac OS X 10_15_5) AppleWebKit/537.36 (KHTML, like Gecko) Chrome/84.0.4147.105 Safari/537.36" etag="MJzr5aDn8AF5UdQnuXwP" version="13.7.9" type="embed" pages="2"><diagram id="hoECT7qni1WdUcx5VfXn" name="system"><mxGraphModel dx="364" dy="485" grid="1" gridSize="10" guides="1" tooltips="1" connect="1" arrows="1" fold="1" page="1" pageScale="1" pageWidth="827" pageHeight="1169" math="0" shadow="0"><root><mxCell id="0"/><mxCell id="1" parent="0"/><mxCell id="5Ljw2iMAwR0X0P2dEYUr-3" value="&lt;blockquote style=&quot;margin: 0 0 0 40px ; border: none ; padding: 0px&quot;&gt;&lt;p style=&quot;line-height: 120%&quot;&gt;docker-compose&lt;/p&gt;&lt;/blockquote&gt;" style="whiteSpace=wrap;html=1;dashed=1;align=left;verticalAlign=top;strokeWidth=3;horizontal=1;" parent="1" vertex="1"><mxGeometry x="160" y="350" width="510" height="310" as="geometry"/></mxCell><mxCell id="5Ljw2iMAwR0X0P2dEYUr-11" value="api" style="edgeStyle=orthogonalEdgeStyle;orthogonalLoop=1;jettySize=auto;html=1;exitX=1;exitY=0.5;exitDx=0;exitDy=0;endArrow=none;endFill=0;rounded=0;" parent="1" source="5Ljw2iMAwR0X0P2dEYUr-2" target="5Ljw2iMAwR0X0P2dEYUr-9" edge="1"><mxGeometry relative="1" as="geometry"/></mxCell><mxCell id="5Ljw2iMAwR0X0P2dEYUr-19" value="websocket" style="edgeStyle=orthogonalEdgeStyle;orthogonalLoop=1;jettySize=auto;html=1;exitX=1;exitY=0.75;exitDx=0;exitDy=0;entryX=0;entryY=0.75;entryDx=0;entryDy=0;endArrow=none;endFill=0;rounded=0;" parent="1" source="5Ljw2iMAwR0X0P2dEYUr-2" target="5Ljw2iMAwR0X0P2dEYUr-9" edge="1"><mxGeometry relative="1" as="geometry"/></mxCell><mxCell id="5Ljw2iMAwR0X0P2dEYUr-4" value="" style="shape=image;verticalLabelPosition=bottom;verticalAlign=top;aspect=fixed;imageAspect=0;image=https://cdn.rancher.com/wp-content/uploads/2016/04/20182217/compose.png;" parent="1" vertex="1"><mxGeometry x="135.39" y="320" width="74.61" height="73.46" as="geometry"/></mxCell><mxCell id="5Ljw2iMAwR0X0P2dEYUr-18" style="edgeStyle=orthogonalEdgeStyle;orthogonalLoop=1;jettySize=auto;html=1;endArrow=none;endFill=0;rounded=0;" parent="1" source="5Ljw2iMAwR0X0P2dEYUr-9" target="5Ljw2iMAwR0X0P2dEYUr-17" edge="1"><mxGeometry relative="1" as="geometry"/></mxCell><mxCell id="5Ljw2iMAwR0X0P2dEYUr-9" value="Nuxt.js&lt;br&gt;&lt;br&gt;&lt;blockquote style=&quot;margin: 0 0 0 40px ; border: none ; padding: 0px&quot;&gt;&lt;/blockquote&gt;&lt;span&gt;TypeScript&lt;/span&gt;&lt;br&gt;&lt;span&gt;Plotly.js&lt;/span&gt;" style="whiteSpace=wrap;html=1;verticalAlign=top;align=left;" parent="1" vertex="1"><mxGeometry x="520" y="410" width="120" height="80" as="geometry"/></mxCell><mxCell id="5Ljw2iMAwR0X0P2dEYUr-12" value="pymongo" style="edgeStyle=orthogonalEdgeStyle;orthogonalLoop=1;jettySize=auto;html=1;endArrow=none;endFill=0;rounded=0;exitX=0.75;exitY=0;exitDx=0;exitDy=0;" parent="1" source="5Ljw2iMAwR0X0P2dEYUr-10" target="5Ljw2iMAwR0X0P2dEYUr-2" edge="1"><mxGeometry relative="1" as="geometry"/></mxCell><mxCell id="5Ljw2iMAwR0X0P2dEYUr-15" value="api" style="edgeStyle=orthogonalEdgeStyle;orthogonalLoop=1;jettySize=auto;html=1;exitX=1;exitY=0.5;exitDx=0;exitDy=0;exitPerimeter=0;endArrow=none;endFill=0;rounded=0;entryX=0;entryY=0.5;entryDx=0;entryDy=0;" parent="1" source="5Ljw2iMAwR0X0P2dEYUr-14" target="2" edge="1"><mxGeometry relative="1" as="geometry"><mxPoint x="120" y="290" as="targetPoint"/></mxGeometry></mxCell><mxCell id="5Ljw2iMAwR0X0P2dEYUr-14" value="DAIKIN" style="aspect=fixed;pointerEvents=1;shadow=0;dashed=0;html=1;strokeColor=#b85450;labelPosition=center;verticalLabelPosition=bottom;verticalAlign=top;align=center;shape=mxgraph.mscae.enterprise.server_generic;fillColor=#f8cecc;" parent="1" vertex="1"><mxGeometry x="60" y="404.16" width="44" height="91.67" as="geometry"/></mxCell><mxCell id="5Ljw2iMAwR0X0P2dEYUr-17" value="" style="pointerEvents=1;shadow=0;dashed=0;html=1;strokeColor=#b85450;labelPosition=center;verticalLabelPosition=bottom;verticalAlign=top;outlineConnect=0;align=center;shape=mxgraph.office.devices.mac_client;fillColor=#f8cecc;" parent="1" vertex="1"><mxGeometry x="700" y="426" width="58" height="48" as="geometry"/></mxCell><mxCell id="5Ljw2iMAwR0X0P2dEYUr-25" value="" style="shape=image;verticalLabelPosition=bottom;verticalAlign=top;aspect=fixed;imageAspect=0;image=https://virtualcast.jp/blog/wp-content/uploads/2019/04/nuxtjs-logo.png;" parent="1" vertex="1"><mxGeometry x="610" y="400" width="40" height="40.1" as="geometry"/></mxCell><mxCell id="6" value="" style="group" parent="1" vertex="1" connectable="0"><mxGeometry x="330" y="400" width="130.20999999999998" height="90" as="geometry"/></mxCell><mxCell id="5Ljw2iMAwR0X0P2dEYUr-2" value="Flask&lt;br&gt;&lt;br&gt;&lt;div style=&quot;&quot;&gt;Python&lt;/div&gt;" style="whiteSpace=wrap;html=1;verticalAlign=top;align=left;" parent="6" vertex="1"><mxGeometry y="10" width="120" height="80" as="geometry"/></mxCell><mxCell id="5Ljw2iMAwR0X0P2dEYUr-22" value="" style="shape=image;verticalLabelPosition=bottom;verticalAlign=top;aspect=fixed;imageAspect=0;image=https://miro.medium.com/max/800/1*Q5EUk28Xc3iCDoMSkrd1_w.png;imageBackground=#ffffff;" parent="6" vertex="1"><mxGeometry x="80" width="50.21" height="37.66" as="geometry"/></mxCell><mxCell id="7" value="" style="group" parent="1" vertex="1" connectable="0"><mxGeometry x="250" y="566" width="128" height="64" as="geometry"/></mxCell><mxCell id="5Ljw2iMAwR0X0P2dEYUr-10" value="MongoDB" style="whiteSpace=wrap;html=1;verticalAlign=top;align=left;" parent="7" vertex="1"><mxGeometry y="4" width="120" height="60" as="geometry"/></mxCell><mxCell id="5Ljw2iMAwR0X0P2dEYUr-16" value="" style="points=[[0,0,0],[0.25,0,0],[0.5,0,0],[0.75,0,0],[1,0,0],[0,1,0],[0.25,1,0],[0.5,1,0],[0.75,1,0],[1,1,0],[0,0.25,0],[0,0.5,0],[0,0.75,0],[1,0.25,0],[1,0.5,0],[1,0.75,0]];outlineConnect=0;gradientDirection=north;dashed=0;verticalLabelPosition=bottom;verticalAlign=top;align=center;html=1;fontSize=12;fontStyle=0;aspect=fixed;shape=mxgraph.aws4.resourceIcon;resIcon=mxgraph.aws4.database;" parent="7" vertex="1"><mxGeometry x="90" width="38" height="38" as="geometry"/></mxCell><mxCell id="8" value="" style="group" parent="1" vertex="1" connectable="0"><mxGeometry x="180" y="405" width="130" height="85" as="geometry"/></mxCell><mxCell id="2" value="&lt;span&gt;Python&lt;br&gt;&lt;/span&gt;&lt;br&gt;データ取得&amp;amp;書込" style="whiteSpace=wrap;html=1;verticalAlign=top;align=left;" parent="8" vertex="1"><mxGeometry y="5" width="120" height="80" as="geometry"/></mxCell><mxCell id="4" value="" style="shape=image;verticalLabelPosition=bottom;labelBackgroundColor=#ffffff;verticalAlign=top;aspect=fixed;imageAspect=0;image=https://wakara.co.jp/wp-content/uploads/Python.png;" parent="8" vertex="1"><mxGeometry x="100" width="30" height="30" as="geometry"/></mxCell><mxCell id="11" value="pymongo" style="edgeStyle=orthogonalEdgeStyle;rounded=0;orthogonalLoop=1;jettySize=auto;html=1;exitX=0.5;exitY=1;exitDx=0;exitDy=0;entryX=0.25;entryY=0;entryDx=0;entryDy=0;endArrow=none;endFill=0;" parent="1" source="2" target="5Ljw2iMAwR0X0P2dEYUr-10" edge="1"><mxGeometry relative="1" as="geometry"/></mxCell><mxCell id="13" value="&lt;h1&gt;データ取得&lt;/h1&gt;&lt;p&gt;&lt;ul&gt;&lt;li&gt;min:10m&lt;/li&gt;&lt;li&gt;midlle:1h&lt;/li&gt;&lt;li&gt;large: 1d&lt;/li&gt;&lt;/ul&gt;&lt;/p&gt;" style="text;html=1;strokeColor=none;fillColor=none;spacing=5;spacingTop=-20;whiteSpace=wrap;overflow=hidden;rounded=0;" parent="1" vertex="1"><mxGeometry x="50" y="700" width="190" height="120" as="geometry"/></mxCell></root></mxGraphModel></diagram><diagram id="VGwrrYC9yaDUnATYe77J" name="api"><mxGraphModel dx="364" dy="485" grid="1" gridSize="10" guides="1" tooltips="1" connect="1" arrows="1" fold="1" page="1" pageScale="1" pageWidth="850" pageHeight="1100" math="0" shadow="0"><root><mxCell id="4bTZ-Iq6ytV4KFU6_Zx9-0"/><mxCell id="4bTZ-Iq6ytV4KFU6_Zx9-1" parent="4bTZ-Iq6ytV4KFU6_Zx9-0"/><mxCell id="4bTZ-Iq6ytV4KFU6_Zx9-35" value="/api/v1/:device" style="text;html=1;strokeColor=none;fillColor=none;align=center;verticalAlign=middle;whiteSpace=wrap;rounded=0;fontSize=20;" parent="4bTZ-Iq6ytV4KFU6_Zx9-1" vertex="1"><mxGeometry x="270" y="120" width="40" height="20" as="geometry"/></mxCell><mxCell id="4bTZ-Iq6ytV4KFU6_Zx9-52" value="Path params" style="text;html=1;strokeColor=none;fillColor=none;align=center;verticalAlign=middle;whiteSpace=wrap;rounded=0;fontSize=20;" parent="4bTZ-Iq6ytV4KFU6_Zx9-1" vertex="1"><mxGeometry x="170" y="190" width="40" height="20" as="geometry"/></mxCell><mxCell id="4bTZ-Iq6ytV4KFU6_Zx9-38" value="" style="shape=table;html=1;whiteSpace=wrap;startSize=0;container=1;collapsible=0;childLayout=tableLayout;align=left;verticalAlign=middle;" parent="4bTZ-Iq6ytV4KFU6_Zx9-1" vertex="1"><mxGeometry x="240" y="180" width="180" height="40" as="geometry"/></mxCell><mxCell id="4bTZ-Iq6ytV4KFU6_Zx9-39" value="" style="shape=partialRectangle;html=1;whiteSpace=wrap;collapsible=0;dropTarget=0;pointerEvents=0;fillColor=none;top=0;left=0;bottom=0;right=0;points=[[0,0.5],[1,0.5]];portConstraint=eastwest;" parent="4bTZ-Iq6ytV4KFU6_Zx9-38" vertex="1"><mxGeometry width="180" height="40" as="geometry"/></mxCell><mxCell id="4bTZ-Iq6ytV4KFU6_Zx9-40" value="device" style="shape=partialRectangle;html=1;whiteSpace=wrap;connectable=0;overflow=hidden;fillColor=none;top=0;left=0;bottom=0;right=0;" parent="4bTZ-Iq6ytV4KFU6_Zx9-39" vertex="1"><mxGeometry width="60" height="40" as="geometry"/></mxCell><mxCell id="4bTZ-Iq6ytV4KFU6_Zx9-41" value="string" style="shape=partialRectangle;html=1;whiteSpace=wrap;connectable=0;overflow=hidden;fillColor=none;top=0;left=0;bottom=0;right=0;" parent="4bTZ-Iq6ytV4KFU6_Zx9-39" vertex="1"><mxGeometry x="60" width="60" height="40" as="geometry"/></mxCell><mxCell id="4bTZ-Iq6ytV4KFU6_Zx9-42" value="daikin, rasp" style="shape=partialRectangle;html=1;whiteSpace=wrap;connectable=0;overflow=hidden;fillColor=none;top=0;left=0;bottom=0;right=0;" parent="4bTZ-Iq6ytV4KFU6_Zx9-39" vertex="1"><mxGeometry x="120" width="60" height="40" as="geometry"/></mxCell><mxCell id="4bTZ-Iq6ytV4KFU6_Zx9-53" value="Query&lt;br&gt;params" style="text;html=1;strokeColor=none;fillColor=none;align=center;verticalAlign=middle;whiteSpace=wrap;rounded=0;fontSize=20;" parent="4bTZ-Iq6ytV4KFU6_Zx9-1" vertex="1"><mxGeometry x="170" y="300" width="40" height="20" as="geometry"/></mxCell><mxCell id="4bTZ-Iq6ytV4KFU6_Zx9-54" value="" style="shape=table;html=1;whiteSpace=wrap;startSize=0;container=1;collapsible=0;childLayout=tableLayout;align=left;verticalAlign=middle;" parent="4bTZ-Iq6ytV4KFU6_Zx9-1" vertex="1"><mxGeometry x="245" y="240" width="180" height="120" as="geometry"/></mxCell><mxCell id="4bTZ-Iq6ytV4KFU6_Zx9-55" value="" style="shape=partialRectangle;html=1;whiteSpace=wrap;collapsible=0;dropTarget=0;pointerEvents=0;fillColor=none;top=0;left=0;bottom=0;right=0;points=[[0,0.5],[1,0.5]];portConstraint=eastwest;" parent="4bTZ-Iq6ytV4KFU6_Zx9-54" vertex="1"><mxGeometry width="180" height="40" as="geometry"/></mxCell><mxCell id="4bTZ-Iq6ytV4KFU6_Zx9-56" value="before" style="shape=partialRectangle;html=1;whiteSpace=wrap;connectable=0;overflow=hidden;fillColor=none;top=0;left=0;bottom=0;right=0;" parent="4bTZ-Iq6ytV4KFU6_Zx9-55" vertex="1"><mxGeometry width="60" height="40" as="geometry"/></mxCell><mxCell id="4bTZ-Iq6ytV4KFU6_Zx9-57" value="unixt&lt;br&gt;timestamp" style="shape=partialRectangle;html=1;whiteSpace=wrap;connectable=0;overflow=hidden;fillColor=none;top=0;left=0;bottom=0;right=0;" parent="4bTZ-Iq6ytV4KFU6_Zx9-55" vertex="1"><mxGeometry x="60" width="60" height="40" as="geometry"/></mxCell><mxCell id="4bTZ-Iq6ytV4KFU6_Zx9-58" value="" style="shape=partialRectangle;html=1;whiteSpace=wrap;connectable=0;overflow=hidden;fillColor=none;top=0;left=0;bottom=0;right=0;" parent="4bTZ-Iq6ytV4KFU6_Zx9-55" vertex="1"><mxGeometry x="120" width="60" height="40" as="geometry"/></mxCell><mxCell id="4bTZ-Iq6ytV4KFU6_Zx9-59" value="" style="shape=partialRectangle;html=1;whiteSpace=wrap;collapsible=0;dropTarget=0;pointerEvents=0;fillColor=none;top=0;left=0;bottom=0;right=0;points=[[0,0.5],[1,0.5]];portConstraint=eastwest;" parent="4bTZ-Iq6ytV4KFU6_Zx9-54" vertex="1"><mxGeometry y="40" width="180" height="40" as="geometry"/></mxCell><mxCell id="4bTZ-Iq6ytV4KFU6_Zx9-60" value="after" style="shape=partialRectangle;html=1;whiteSpace=wrap;connectable=0;overflow=hidden;fillColor=none;top=0;left=0;bottom=0;right=0;" parent="4bTZ-Iq6ytV4KFU6_Zx9-59" vertex="1"><mxGeometry width="60" height="40" as="geometry"/></mxCell><mxCell id="4bTZ-Iq6ytV4KFU6_Zx9-61" value="unix&lt;br&gt;timestamp" style="shape=partialRectangle;html=1;whiteSpace=wrap;connectable=0;overflow=hidden;fillColor=none;top=0;left=0;bottom=0;right=0;" parent="4bTZ-Iq6ytV4KFU6_Zx9-59" vertex="1"><mxGeometry x="60" width="60" height="40" as="geometry"/></mxCell><mxCell id="4bTZ-Iq6ytV4KFU6_Zx9-62" value="" style="shape=partialRectangle;html=1;whiteSpace=wrap;connectable=0;overflow=hidden;fillColor=none;top=0;left=0;bottom=0;right=0;" parent="4bTZ-Iq6ytV4KFU6_Zx9-59" vertex="1"><mxGeometry x="120" width="60" height="40" as="geometry"/></mxCell><mxCell id="4bTZ-Iq6ytV4KFU6_Zx9-63" value="" style="shape=partialRectangle;html=1;whiteSpace=wrap;collapsible=0;dropTarget=0;pointerEvents=0;fillColor=none;top=0;left=0;bottom=0;right=0;points=[[0,0.5],[1,0.5]];portConstraint=eastwest;" parent="4bTZ-Iq6ytV4KFU6_Zx9-54" vertex="1"><mxGeometry y="80" width="180" height="40" as="geometry"/></mxCell><mxCell id="4bTZ-Iq6ytV4KFU6_Zx9-64" value="period" style="shape=partialRectangle;html=1;whiteSpace=wrap;connectable=0;overflow=hidden;fillColor=none;top=0;left=0;bottom=0;right=0;" parent="4bTZ-Iq6ytV4KFU6_Zx9-63" vertex="1"><mxGeometry width="60" height="40" as="geometry"/></mxCell><mxCell id="4bTZ-Iq6ytV4KFU6_Zx9-65" value="string" style="shape=partialRectangle;html=1;whiteSpace=wrap;connectable=0;overflow=hidden;fillColor=none;top=0;left=0;bottom=0;right=0;" parent="4bTZ-Iq6ytV4KFU6_Zx9-63" vertex="1"><mxGeometry x="60" width="60" height="40" as="geometry"/></mxCell><mxCell id="4bTZ-Iq6ytV4KFU6_Zx9-66" value="minutes, hour, day, week" style="shape=partialRectangle;html=1;whiteSpace=wrap;connectable=0;overflow=hidden;fillColor=none;top=0;left=0;bottom=0;right=0;" parent="4bTZ-Iq6ytV4KFU6_Zx9-63" vertex="1"><mxGeometry x="120" width="60" height="40" as="geometry"/></mxCell></root></mxGraphModel></diagram></mxfile>